<?xml version="1.0" standalone="no"?>
<!DOCTYPE svg PUBLIC "-//W3C//DTD SVG 20010904//EN"
 "http://www.w3.org/TR/2001/REC-SVG-20010904/DTD/svg10.dtd">
<svg version="1.0" xmlns="http://www.w3.org/2000/svg"
 width="512.000000pt" height="512.000000pt" viewBox="0 0 512.000000 512.000000"
 preserveAspectRatio="xMidYMid meet">
<metadata>
Created by potrace 1.14, written by Peter Selinger 2001-2017
</metadata>
<g transform="translate(0.000000,512.000000) scale(0.100000,-0.100000)"
fill="#000000" stroke="none">
<path d="M2260 5105 c-760 -92 -1434 -512 -1853 -1155 -454 -698 -535 -1605
-211 -2377 131 -313 310 -579 554 -823 488 -488 1121 -750 1810 -750 689 0
1322 262 1810 750 488 488 750 1121 750 1810 0 689 -262 1322 -750 1810 -416
416 -935 667 -1519 735 -151 18 -444 18 -591 0z m890 -905 c219 -63 360 -197
417 -393 50 -172 39 -358 -29 -497 -48 -99 -160 -206 -268 -258 -47 -22 -111
-46 -142 -53 -32 -7 -58 -15 -58 -18 0 -4 48 -47 106 -96 321 -272 446 -473
485 -781 41 -325 -60 -606 -299 -836 -388 -373 -1043 -495 -1490 -277 -88 43
-116 63 -191 137 -74 73 -95 102 -134 182 -55 112 -74 180 -87 314 -23 232 42
456 191 657 126 170 267 251 408 234 76 -10 111 -45 111 -112 0 -67 -17 -163
-46 -263 -52 -182 -55 -402 -6 -514 28 -63 84 -120 145 -147 44 -19 69 -23
157 -23 121 0 189 14 279 57 207 97 294 361 200 611 -44 118 -186 285 -418
491 -216 192 -340 365 -403 565 -20 66 -23 94 -22 235 1 144 3 169 28 250 33
107 72 183 135 261 108 135 294 247 477 288 104 23 354 16 454 -14z"/>
<path d="M2792 3800 c-72 -13 -161 -60 -205 -109 l-37 -41 30 -82 c42 -116
107 -219 215 -340 96 -108 138 -143 156 -132 29 18 137 169 170 239 66 137 88
279 54 344 -48 94 -224 149 -383 121z"/>
</g>
</svg>
